<svg xmlns="http://www.w3.org/2000/svg" viewBox="0 0 420 400"><path d="m0 0h420v400H0"/><g transform="matrix(130,0,0,130,210,144)"> <path fill="#f00" d="M1 0A1 1 0 0 0-1 0"/><path fill="#0f0" d="M-1 0A1 1 0 0 0 0 1.73"/><path fill="#00f" d="M0 1.73A1 1 0 0 0 1 0"/><path fill="#ff0" d="M0 0A1 1 0 0 0-1 0 1 1 0 0 0-.5.87"/><path fill="#0ff" d="M-.5.87A1 1 0 0 0 0 1.73 1 1 0 0 0 .5.87"/><path fill="#f0f" d="M.5.87A1 1 0 0 0 1 0 1 1 0 0 0 0 0"/><path fill="#fff" d="M0 0A1 1 0 0 0-.5.87 1 1 0 0 0 .5.87 1 1 0 0 0 0 0"/></g></svg>
